<?xml version="1.0" encoding="UTF-8" standalone="no"?>
<!DOCTYPE svg PUBLIC "-//W3C//DTD SVG 1.1//EN" "http://www.w3.org/Graphics/SVG/1.1/DTD/svg11.dtd">
<svg width="100%" height="100%" viewBox="0 0 2000 2000" version="1.1" xmlns="http://www.w3.org/2000/svg" xmlns:xlink="http://www.w3.org/1999/xlink" xml:space="preserve" xmlns:serif="http://www.serif.com/" style="fill-rule:evenodd;clip-rule:evenodd;stroke-linecap:round;stroke-linejoin:round;stroke-miterlimit:1.5;">
    <g transform="matrix(1,0,0,1,-15,-2)">
        <rect x="-38" y="-27" width="2086" height="2039" style="fill:rgb(138,170,121);"/>
    </g>
    <g transform="matrix(1,0,0,1,-39,-202)">
        <path d="M1324,123L1324,632C1324,709.268 1261.268,772 1184,772L904,772C826.732,772 764,709.268 764,632L764,123C764,45.732 826.732,-17 904,-17L1184,-17C1261.268,-17 1324,45.732 1324,123Z" style="fill:none;stroke:white;stroke-opacity:0.67;stroke-width:58.33px;"/>
    </g>
    <g transform="matrix(0.978265,-0.207361,0.207361,0.978265,-202.586897,818.689967)">
        <path d="M1324,123L1324,632C1324,709.268 1261.268,772 1184,772L904,772C826.732,772 764,709.268 764,632L764,123C764,45.732 826.732,-17 904,-17L1184,-17C1261.268,-17 1324,45.732 1324,123Z" style="fill:none;stroke:white;stroke-width:58.33px;"/>
    </g>
    <g transform="matrix(1,0,0,1,-39,1531)">
        <path d="M1324,123L1324,632C1324,709.268 1261.268,772 1184,772L904,772C826.732,772 764,709.268 764,632L764,123C764,45.732 826.732,-17 904,-17L1184,-17C1261.268,-17 1324,45.732 1324,123Z" style="fill:none;stroke:white;stroke-opacity:0.7;stroke-width:58.33px;"/>
    </g>
    <g transform="matrix(9.492958,-0.365716,0.365716,9.492958,891.700694,926.189023)">
        <rect x="0" y="0" width="24" height="24" style="fill:none;fill-rule:nonzero;"/>
    </g>
    <g transform="matrix(9.292032,-1.976904,1.976904,9.292032,762.270383,877.868892)">
        <path d="M10,11L10,17M14,11L14,17M19,6L19,20C19,21.097 18.097,22 17,22L7,22C5.903,22 5,21.097 5,20L5,6M3,6L21,6M8,6L8,4C8,2.903 8.903,2 10,2L14,2C15.097,2 16,2.903 16,4L16,6" style="fill:none;fill-rule:nonzero;stroke:white;stroke-width:2px;stroke-miterlimit:4;"/>
    </g>
</svg>
